<svg xmlns="http://www.w3.org/2000/svg" xmlns:xlink="http://www.w3.org/1999/xlink" version="1.1" x="0px" y="0px" viewBox="0 0 96 96" style="enable-background:new 0 0 96 96;" xml:space="preserve"><path d="M54.16,6.5c-19.49,0-35.34,15.85-35.34,35.34c0,9.2,3.54,17.6,9.33,23.89L6.94,86.94c-0.59,0.59-0.59,1.54,0,2.12  C7.23,89.35,7.62,89.5,8,89.5s0.77-0.15,1.06-0.44l21.21-21.21c6.3,5.79,14.69,9.33,23.89,9.33c19.49,0,35.34-15.85,35.34-35.34  S73.65,6.5,54.16,6.5z M54.16,74.18c-17.83,0-32.34-14.51-32.34-32.34S36.33,9.5,54.16,9.5S86.5,24.01,86.5,41.84  S71.99,74.18,54.16,74.18z"></path></svg>