<svg xmlns="http://www.w3.org/2000/svg" xmlns:xlink="http://www.w3.org/1999/xlink" version="1.1" x="0px" y="0px" viewBox="0 0 1024 1024" style="enable-background:new 0 0 1024 1024;" xml:space="preserve"><g><g><g><path d="M357.5,299.2c-10.4,19.1-20.7,38.2-31.1,57.3c-16.5,30.5-33.1,61-49.6,91.4c-3.8,7.1-7.7,14.1-11.5,21.2     c9.1-2.4,18.2-4.8,27.4-7.2c-21.3-11-42.6-22-63.9-32.9c-34.1-17.6-68.2-35.2-102.4-52.8c-7.8-4-15.6-8.1-23.4-12.1     c1.3,10.5,2.7,20.9,4,31.4c13.8-15.4,27.6-30.9,41.4-46.3c22-24.6,44.1-49.3,66.1-73.9c5.1-5.7,10.2-11.4,15.2-17     c-6.5,1.7-13,3.4-19.5,5.1c17.9,7.3,35.8,14.6,53.6,22c28.6,11.7,57.1,23.4,85.7,35.1c6.6,2.7,13.2,5.4,19.9,8.1     c9.7,4,22.4-4.3,24.6-14c2.6-11.6-3.6-20.3-14-24.6c-17.9-7.3-35.8-14.6-53.6-22c-28.6-11.7-57.1-23.4-85.7-35.1     c-6.6-2.7-13.2-5.4-19.9-8.1c-6.1-2.5-15.2,0.4-19.5,5.1c-13.8,15.4-27.6,30.9-41.4,46.3c-22,24.6-44.1,49.3-66.1,73.9     c-5.1,5.7-10.2,11.4-15.2,17c-8.1,9.1-8,25.2,4,31.4c21.3,11,42.6,22,63.9,32.9c34.1,17.6,68.2,35.2,102.4,52.8     c7.8,4,15.6,8.1,23.4,12.1c9.4,4.8,22,2.7,27.4-7.2c10.4-19.1,20.7-38.2,31.1-57.3c16.5-30.5,33.1-61,49.6-91.4     c3.8-7.1,7.7-14.1,11.5-21.2c5-9.2,2.6-22.2-7.2-27.4C375.5,287.1,362.8,289.4,357.5,299.2z"></path></g></g><g><g><path d="M803.4,224.8c-41.6,17.1-83.3,34.2-124.9,51.2c-9.2,3.8-18.3,7.5-27.5,11.3c-2,0.8-4.1,1.5-6,2.4     c-2.7,1.4,7.7-0.4,3.7-0.5c-14.4-0.5-28.9,0-43.2,0c-56.2,0-112.5,0-168.7,0c-18.7,0-37.3,0-56,0c-1.7,0-3.4-0.1-5.1,0     c-3.7,0.2,6.7,2,3.7,0.4c-5.6-2.9-12-4.9-17.9-7.3c-45.8-18.7-91.5-37.5-137.3-56.2c-1.1-0.4-2.2-0.9-3.3-1.3     c0,12.9,0,25.7,0,38.6c41.7-17.1,83.4-34.2,125.1-51.2c9.2-3.8,18.4-7.5,27.5-11.3c2-0.8,4.1-1.5,6-2.4c2.7-1.4-7.7,0.4-3.7,0.5     c14.4,0.5,28.9,0,43.2,0c56.2,0,112.5,0,168.7,0c18.7,0,37.3,0,56,0c1.7,0,3.4,0.1,5.1,0c3.7-0.2-6.7-2-3.7-0.4     c5.6,2.9,12,4.9,17.9,7.3c45.7,18.7,91.4,37.5,137.1,56.2c1.1,0.4,2.2,0.9,3.3,1.3c9.7,4,22.4-4.3,24.6-14     c2.6-11.6-3.6-20.3-14-24.6c-41.9-17.2-83.8-34.4-125.7-51.6c-9-3.7-18.1-7.4-27.1-11.1c-4.3-1.8-7.5-3.1-12.4-3.2     c-14.4-0.4-28.9,0-43.4,0c-56.2,0-112.5,0-168.7,0c-18.7,0-37.4,0-56.1,0c-3.9,0-8-0.3-11.8,0.9c-5.9,1.9-11.7,4.8-17.4,7.1     c-46,18.8-91.9,37.7-137.9,56.5c-1.1,0.4-2.2,0.9-3.3,1.3c-8,3.3-15.1,9.8-14.7,19.3c0.4,9.6,6.1,15.8,14.7,19.3     c42,17.2,83.9,34.4,125.9,51.6c9,3.7,18.1,7.4,27.1,11.1c4.4,1.8,7.5,3.1,12.4,3.2c14.4,0.4,28.9,0,43.4,0     c56.2,0,112.5,0,168.7,0c18.7,0,37.4,0,56.1,0c3.9,0,8,0.3,11.8-0.9c5.9-1.9,11.7-4.8,17.4-7.1c45.9-18.8,91.8-37.7,137.7-56.5     c1.1-0.4,2.2-0.9,3.3-1.3c9.6-4,17.6-13.5,14-24.6C825,229.5,813.8,220.6,803.4,224.8z"></path></g></g><g><g><path d="M727.6,465.1C727.6,465.1,727.6,465.1,727.6,465.1c4.7-1.9,9.4-3.9,14.1-5.8c-15.2,0-30.4,0-45.7,0     c-36.6,0-73.1,0-109.7,0c-44.2,0-88.5,0-132.7,0c-38.2,0-76.5,0-114.7,0c-18.5,0-37.2-0.8-55.7,0c-0.3,0-0.5,0-0.8,0     c4.7,2,9.4,3.9,14.1,5.9c0,0,0,0,0,0c1,8.1,2.1,16.2,3.1,24.2c10.4-19.1,20.7-38.2,31.1-57.3c16.5-30.5,33.1-61,49.6-91.4     c3.8-7.1,7.7-14.1,11.5-21.2c-5.8,3.3-11.5,6.6-17.3,9.9c31,0,62,0,93,0c49.2,0,98.4,0,147.6,0c11.3,0,22.6,0,33.9,0     c-5.8-3.3-11.5-6.6-17.3-9.9c10.4,19.1,20.8,38.2,31.3,57.4c16.6,30.5,33.2,61,49.9,91.5c3.8,7,7.6,14,11.5,21     c5,9.2,18.5,12.9,27.4,7.2c9.3-6,12.5-17.5,7.2-27.4c-10.4-19.1-20.8-38.2-31.3-57.4c-16.6-30.5-33.2-61-49.9-91.5     c-3.8-7-7.6-14-11.5-21c-3.3-6.1-10.4-9.9-17.3-9.9c-31,0-62,0-93,0c-49.2,0-98.4,0-147.6,0c-11.3,0-22.6,0-33.9,0     c-6.9,0-13.9,3.8-17.3,9.9c-10.4,19.1-20.7,38.2-31.1,57.3c-16.5,30.5-33.1,61-49.6,91.4c-3.8,7.1-7.7,14.1-11.5,21.2     c-4.3,7.9-3.2,17.8,3.1,24.2c6.9,7,16.5,5.9,25.3,5.9c11,0,22,0,33,0c36.8,0,73.5,0,110.3,0c44.7,0,89.4,0,134.1,0     c38.5,0,77.1,0,115.6,0c18.2,0,36.5,0.6,54.7,0c5.3-0.2,10.9-1.9,14.7-5.9c7.2-7.6,8.1-20.8,0-28.3     C748.1,457.9,735.3,457,727.6,465.1z"></path></g></g><g><g><path d="M631.9,319.4c10.4,19.1,20.8,38.2,31.3,57.4c16.6,30.5,33.2,61,49.9,91.5c3.8,7,7.6,14,11.5,21     c5.4,9.8,18,12,27.4,7.2c21.3-11,42.6-22,63.9-32.9c34.1-17.6,68.2-35.2,102.4-52.8c7.8-4,15.6-8.1,23.4-12.1     c12-6.2,12.2-22.3,4-31.4c-13.8-15.4-27.6-30.9-41.4-46.3c-22-24.6-44.1-49.3-66.1-73.9c-5.1-5.7-10.2-11.4-15.2-17     c-4.3-4.8-13.3-7.7-19.5-5.1c-18,7.4-36,14.8-54,22.2c-28.6,11.7-57.1,23.4-85.7,35.2c-4.7,1.9-9.3,3.8-14,5.7     c-1.3,0.5-2.7,1-3.9,1.6c-3.4,1.7,3.2-0.2,3.4-0.2c-10.5,0-20.5,9.2-20,20c0.5,10.8,8.8,20,20,20c7.1,0,14-4,20.4-6.6     c12.6-5.2,25.2-10.3,37.8-15.5c28.8-11.8,57.7-23.7,86.5-35.5c6.7-2.8,13.4-5.5,20.2-8.3c-6.5-1.7-13-3.4-19.5-5.1     c13.8,15.4,27.6,30.9,41.4,46.3c22,24.6,44.1,49.3,66.1,73.9c5.1,5.7,10.2,11.4,15.2,17c1.3-10.5,2.7-20.9,4-31.4     c-21.3,11-42.6,22-63.9,32.9c-34.1,17.6-68.2,35.2-102.4,52.8c-7.8,4-15.6,8.1-23.4,12.1c9.1,2.4,18.2,4.8,27.4,7.2     c-10.4-19.1-20.8-38.2-31.3-57.4c-16.6-30.5-33.2-61-49.9-91.5c-3.8-7-7.6-14-11.5-21c-5-9.2-18.5-12.9-27.4-7.2     C629.8,298.1,626.6,309.6,631.9,319.4z"></path></g></g><g><g><path d="M917.3,367.3c-14,15.5-28,31-42,46.5c-33.3,37-66.7,73.9-100,110.9c-40.3,44.7-80.6,89.3-120.8,134     c-34.8,38.6-69.7,77.2-104.5,115.8c-16.9,18.8-34.7,37.1-50.9,56.5c-0.2,0.3-0.5,0.5-0.7,0.8c10.5,1.3,20.9,2.7,31.4,4     c-0.2-0.3-0.4-0.5-0.6-0.8c0,6.7,0,13.5,0,20.2c7.6-12.1,15.2-24.3,22.8-36.4c18.3-29.1,36.6-58.2,54.9-87.4     c22.1-35.2,44.2-70.5,66.4-105.7c19.1-30.5,38.3-60.9,57.4-91.4c9.3-14.7,19.3-29.2,27.9-44.4c0.1-0.2,0.3-0.4,0.4-0.6     c-5.8,3.3-11.5,6.6-17.3,9.9c5.7,0,9.9-2.5,14.2-5.9c-0.1,0.1-4.1,3-3.9,3.1c0.2,0,0.5-0.3,0.7-0.4c1.1-0.4,2.2-1.1,3.3-1.7     c4.4-2.2,8.7-4.5,13.1-6.7c15-7.7,30-15.5,45.1-23.2c34.5-17.8,69-35.5,103.4-53.3c8-4.1,16-8.3,24-12.4     c9.3-4.8,12.8-18.6,7.2-27.4c-6.1-9.5-17.4-12.3-27.4-7.2c-21.6,11.1-43.2,22.2-64.7,33.4c-34.1,17.6-68.3,35.2-102.4,52.8     c-5.5,2.9-11.1,5.7-16.6,8.6c-3.4,1.8-7.3,3.3-10,6.2c4.7-2,9.4-3.9,14.1-5.9c-12.4,0-17.2,9.7-22.7,18.5     c-5.4,8.6-10.8,17.2-16.2,25.7c-18.2,29-36.4,58-54.7,87.1c-22.3,35.5-44.6,71-66.9,106.5c-19.3,30.8-38.7,61.6-58,92.4     c-9.4,14.9-19.3,29.7-28.2,44.9c-0.1,0.2-0.3,0.4-0.4,0.7c-3.4,5.4-4.1,14.8,0,20.2c0.2,0.3,0.4,0.5,0.6,0.8     c4,5.2,7.9,8.6,14.6,9.5c6,0.8,12.6-0.8,16.8-5.5c14-15.5,28-31,42-46.5c33.3-37,66.7-73.9,100-110.9     c40.3-44.7,80.6-89.3,120.8-134c34.8-38.6,69.7-77.2,104.5-115.8c17-18.8,34.2-37.4,50.9-56.5c0.2-0.3,0.5-0.5,0.7-0.8     c7-7.8,8.2-20.7,0-28.3C938,360.3,924.8,359,917.3,367.3z"></path></g></g><g><g><path d="M78.7,395.6c14,15.5,28,31,42,46.5c33.3,37,66.7,73.9,100,110.9c40.3,44.7,80.6,89.3,120.8,134     c34.8,38.6,69.7,77.2,104.5,115.8c16.9,18.8,33.4,38.2,50.9,56.5c0.2,0.3,0.5,0.5,0.7,0.8c4.2,4.7,10.8,6.3,16.8,5.5     c6.7-0.9,10.6-4.3,14.6-9.5c0.2-0.3,0.4-0.5,0.6-0.8c4.1-5.4,3.4-14.7,0-20.2c-7.7-12.3-15.5-24.6-23.2-36.9     c-18.5-29.5-37-59-55.5-88.5c-22.3-35.5-44.6-71-66.9-106.5c-19.1-30.4-38.2-60.8-57.3-91.2c-8.9-14.1-17.3-28.6-26.6-42.4     c-4.1-6-10-10.2-17.6-10.2c4.7,2,9.4,3.9,14.1,5.9c-5.7-5.7-15.1-8.8-22-12.4c-15-7.7-30.1-15.5-45.1-23.2     c-34.3-17.7-68.6-35.4-102.9-53c-7.9-4.1-15.8-8.2-23.7-12.2c-9.3-4.8-22.1-2.7-27.4,7.2c-4.8,9.2-2.8,22.2,7.2,27.4     c21.9,11.3,43.7,22.5,65.6,33.8c34.2,17.6,68.3,35.2,102.5,52.8c5.5,2.8,10.9,5.6,16.4,8.4c1.4,0.7,2.8,1.5,4.2,2.2     c0.3,0.1,0.6,0.3,0.9,0.5c0.1,0,0.1,0.1,0.2,0.1c-1.3-1-2.7-2.1-4-3.1c1.3,1,2.7,2.1,4,3.1c3,1.7,6.8,2.7,10.2,2.7     c-5.8-3.3-11.5-6.6-17.3-9.9c7.6,12.1,15.2,24.3,22.8,36.4c18.3,29.1,36.6,58.2,54.9,87.4c22.1,35.2,44.2,70.5,66.4,105.7     c19.1,30.5,38.3,60.9,57.4,91.4c9.3,14.7,17.9,30.1,27.9,44.4c0.1,0.2,0.3,0.4,0.4,0.6c0-6.7,0-13.5,0-20.2     c-0.2,0.3-0.4,0.5-0.6,0.8c10.5-1.3,20.9-2.7,31.4-4c-14-15.5-28-31-42-46.5c-33.3-37-66.7-73.9-100-110.9     c-40.3-44.7-80.6-89.3-120.8-134c-34.8-38.6-69.7-77.2-104.5-115.8c-16.9-18.8-33.4-38.2-50.9-56.5c-0.2-0.3-0.5-0.5-0.7-0.8     c-7-7.8-21.2-7.7-28.3,0C71,375.6,71.2,387.3,78.7,395.6z"></path></g></g></g></svg>